<svg width="128" height="128" viewBox="0 0 32 32" fill="none" xmlns="http://www.w3.org/2000/svg">
<path fill-rule="evenodd" clip-rule="evenodd" d="M17.4918 3.19238L23.0714 4.8545C23.8028 4.70491 24.7848 4.54718 25.7486 4.48069C26.3228 4.44108 26.9303 4.43092 27.4935 4.4866C28.0178 4.53844 28.6842 4.6624 29.2435 5.01832L29.6344 5.26707L29.8169 5.69294C30.1103 6.37745 30.137 7.31231 29.6711 8.21578C29.6335 8.28872 29.5932 8.36059 29.5501 8.43134L30.9999 8.31053V9.94073C30.9999 10.3271 30.8912 10.862 30.5984 11.3973C30.7059 11.5801 30.8064 11.7762 30.8948 11.9838C31.2244 12.7581 31.4299 13.8095 31.0304 14.9279C30.633 16.0406 30.0448 16.8563 29.4793 17.3738C29.345 18.0346 29.0796 18.8106 28.6302 19.5531C28.0934 20.4399 27.2663 21.3183 26.0625 21.8488C25.922 22.1734 25.7421 22.5293 25.523 22.8835C25.1212 23.5327 24.5112 24.2998 23.6496 24.8024L22.5437 25.4475L21.7329 24.4566C21.7105 24.4292 21.6853 24.3989 21.6578 24.366C21.427 24.8666 21.1669 25.3759 20.9049 25.852C20.5381 26.5185 20.1477 27.1556 19.8036 27.6357C19.6368 27.8684 19.4481 28.1105 19.254 28.3057C19.1618 28.3984 19.0159 28.5345 18.8272 28.65C18.7074 28.7234 18.201 29.0257 17.5446 28.8467C16.8713 28.6631 16.1835 28.1625 15.6306 27.676C15.0236 27.1419 14.3793 26.445 13.7945 25.6461C12.9873 24.5433 12.2055 23.1234 11.8747 21.576L10.4095 21.909L9.91431 21.6424C9.55256 21.4476 8.84477 21.0291 8.14373 20.5085L7.16175 21.3357L7.43266 23.7738L5.13894 22.9038C4.37683 22.6147 3.32069 22.0035 2.4348 21.0516C1.53066 20.0801 0.75 18.689 0.75 16.9007C0.75 14.9676 1.27359 13.5145 2.07594 12.4653C2.47127 11.9483 2.91412 11.5556 3.35285 11.2606C3.33436 10.637 3.48372 9.92765 3.95105 9.22665C4.31001 8.68821 4.68363 8.36388 5.00692 8.12142C5.13113 8.02825 5.21905 7.96525 5.28686 7.91665C5.37345 7.85459 5.42724 7.81604 5.48194 7.76822C5.48674 7.75802 5.49215 7.74618 5.49813 7.7326C5.54727 7.62103 5.60524 7.46053 5.66795 7.25725C5.7931 6.85156 5.90016 6.39882 5.98027 6.05833L6.08402 5.61738L6.41449 5.30756C7.34823 4.43218 9.71609 3.18256 12.7322 3.87859L13.8861 4.14487L17.4918 3.19238ZM10.9633 6.67721C9.97097 6.68121 9.20293 7.0068 8.77419 7.27054C8.70701 7.53977 8.62588 7.84584 8.53464 8.14161C8.45482 8.40034 8.35797 8.68219 8.24368 8.94171C8.14671 9.16189 7.97 9.52711 7.67537 9.82174C7.39856 10.0985 7.07209 10.3314 6.89699 10.4564C6.85927 10.4833 6.82858 10.5052 6.80692 10.5214C6.65834 10.6328 6.5601 10.7214 6.4472 10.8907C6.3992 10.9627 6.377 11.021 6.3657 11.0644C6.35397 11.1094 6.35056 11.1519 6.35243 11.1916C6.35437 11.2329 6.36195 11.2682 6.36943 11.2923C6.37011 11.2945 6.37133 11.2982 6.37133 11.2982L7.36287 12.8846L5.55553 13.4871C5.25192 13.5883 4.81792 13.8183 4.459 14.2876C4.11117 14.7425 3.75 15.5308 3.75 16.9007C3.75 17.6653 4.03827 18.3008 4.4727 18.8274C4.55153 18.469 4.63223 18.1498 4.69751 17.9148L5.23954 15.9635L7.3216 17.2884L8.24024 16.5229L9.20885 17.4915C9.65208 17.9347 10.3458 18.4091 10.8671 18.7285L14.8513 17.823L14.7174 19.8316C14.6335 21.0901 15.2578 22.566 16.2153 23.8741C16.6775 24.5055 17.176 25.0398 17.6123 25.4237C17.6262 25.436 17.64 25.448 17.6536 25.4598C17.8467 25.1584 18.0609 24.7976 18.2767 24.4055C18.606 23.8071 18.9196 23.1712 19.1534 22.6097C19.4069 22.0005 19.5011 21.6306 19.5108 21.5042L19.7147 18.8533L21.8782 20.3987C22.2294 20.6495 22.6058 20.9925 22.9509 21.3385C22.9579 21.3273 22.965 21.316 22.972 21.3047C23.2338 20.8816 23.3983 20.4628 23.4602 20.2523L23.6946 19.4551L24.4948 19.2311C25.2299 19.0253 25.7237 18.5613 26.0638 17.9996C26.4198 17.4114 26.5639 16.7786 26.5881 16.4399L26.649 15.5874L27.3855 15.2191C27.3855 15.2191 27.4836 15.1507 27.6344 14.9678C27.8099 14.7547 28.0281 14.4149 28.2052 13.9189C28.2777 13.7161 28.2669 13.4699 28.1345 13.1589C27.9961 12.8339 27.7752 12.5679 27.6567 12.4585L26.3016 11.2076L26.7805 10.8655C26.3067 10.6613 25.9 10.4377 25.6216 10.2588L23.1509 8.67046L25.8862 7.60015C26.0072 7.55278 26.1155 7.50536 26.2124 7.4586C26.1286 7.46253 26.0427 7.46753 25.955 7.47358C24.9954 7.53978 23.9773 7.71984 23.3461 7.86415L22.9616 7.95204L17.4431 6.30815L11.5984 7.85212L10.9633 6.67721ZM17.1268 26.1902C17.1213 26.1958 17.1218 26.1948 17.1282 26.1889L17.1268 26.1902ZM6.37551 11.3094L6.37475 11.3076L6.37551 11.3094Z" fill="#E0FFAF"/>
<path d="M12.3949 5.33991C9.94126 4.77368 8.06955 5.81177 7.4404 6.40159C7.28314 7.07004 6.9686 8.40692 6.61471 8.76081C6.14285 9.23267 5.67099 9.35064 5.19913 10.0584C4.63289 10.9078 4.88455 11.7493 5.08116 12.0638C4.01953 12.4177 2.25 13.5974 2.25 16.9004C2.25 19.5428 4.53062 21.0685 5.67093 21.501C5.57656 20.6517 5.94618 19.0238 6.14279 18.316L7.4404 19.1417L8.14819 18.5519C8.90317 19.3069 10.1143 20.0461 10.6255 20.3214L13.2207 19.7316C12.9848 23.2705 16.6417 27.0454 17.9393 27.3993C18.3718 27.5173 20.8884 23.1525 21.0064 21.619C21.667 22.0909 22.5399 23.0739 22.8938 23.5064C24.0263 22.8458 24.7026 21.3438 24.8992 20.6753C27.2585 20.0147 28.0056 17.6475 28.0843 16.5465C28.3989 16.3892 29.146 15.7443 29.6178 14.4231C30.0897 13.1019 29.1853 11.8279 28.6741 11.356C29.3347 10.8842 29.4999 10.2157 29.4999 9.94046C28.3674 10.0348 26.9833 9.35064 26.4328 8.99674C28.6033 8.14739 28.6741 6.83405 28.4382 6.28355C27.4001 5.62294 24.3881 6.08699 23.0118 6.40159L17.4674 4.75L11.2153 6.40159L12.3949 5.33991Z" fill="#273A0B"/>
<path d="M18.7053 14.384C19.6971 12.4004 18.2921 11.4537 17.4656 11.2282C19.6295 9.96595 23.5047 9.93985 25.1952 9.82715C26.2692 10.2177 27.2456 10.413 28.398 10.6647C26.7074 11.6791 26.2566 11.9045 23.8898 13.9332C21.9963 15.5561 20.8467 16.8635 20.5086 17.3143L18.7053 14.384Z" fill="#9DC857"/>
<path d="M7.91174 9.9413C7.62862 10.5075 7.71513 11.8287 7.79377 12.4186C7.13316 11.003 7.20395 9.9413 7.32193 9.5874C8.02972 8.40775 7.91174 7.81792 8.14769 7.34606C8.33644 6.96858 9.48463 6.55963 10.0351 6.40234L8.85548 7.69996C8.7611 9.20991 8.187 9.82333 7.91174 9.9413Z" fill="#9DC857"/>
<path d="M6.73232 11.4748C6.73232 12.2298 6.96825 12.8904 7.08621 13.1264C6.61454 12.8904 6.02453 12.1826 5.90656 11.4748C5.7886 10.7671 6.26046 10.0593 6.49639 10.0593C6.73232 10.0593 6.73232 10.5311 6.73232 11.4748Z" fill="#9DC857"/>
<path d="M10.1548 17.9617L8.73926 16.6641V17.4898C9.11675 17.9617 9.91891 18.6301 10.2728 18.9054C10.5559 18.9998 12.5928 18.2369 13.5758 17.8437L12.986 16.9C12.7029 17.1831 10.9806 17.7257 10.1548 17.9617Z" fill="#9DC857"/>
<path d="M9.91822 15.8394L8.62061 14.4238V15.4855C8.81721 15.8787 9.91822 16.7831 9.91822 16.7831C9.91822 16.7831 12.1202 16.2412 12.8673 15.9113V14.8957L9.91822 15.8394Z" fill="#9DC857"/>
<path d="M17.3489 15.8398C16.9236 15.8398 14.8717 17.4914 14.6357 19.8507C14.9189 22.8706 16.8771 24.6479 17.8208 25.1591C18.387 24.3097 18.6859 21.5808 18.7645 20.3225C18.9533 21.2662 19.315 22.0526 19.4723 22.3279L19.9442 18.9069C18.7645 16.1937 17.8208 15.8398 17.3489 15.8398Z" fill="#9DC857"/>
<path d="M22.7783 16.4297C21.929 17.1847 21.5594 18.2385 21.4807 18.671L23.0143 21.1483C23.0929 20.8337 23.2502 20.0866 23.2502 19.6147L23.6041 20.5585C24.3591 18.7654 23.3682 17.0588 22.7783 16.4297Z" fill="#9DC857"/>
<path d="M14.6376 11.3567C14.6376 12.961 14.0084 13.9126 13.6938 14.1879V10.7669L15.2274 8.2896L27.0239 6.87402C27.1025 7.03131 26.9295 7.53463 25.6083 8.2896C24.2871 9.04458 23.0917 8.60418 22.6592 8.2896L15.8172 9.35129L14.6376 11.3567Z" fill="#9DC857"/>
<path d="M14.166 15.8395C14.3626 15.4463 14.921 14.5419 15.5816 14.07C15.5423 13.7554 15.6524 13.0319 16.4074 12.6544C17.3511 12.1826 18.1768 12.6544 17.469 13.8342C16.8973 14.3345 16.4924 14.5055 16.2954 14.5419H16.9972C16.8792 14.6992 16.5489 15.0138 16.1714 15.0138C15.6996 15.0138 15.2277 15.0138 14.9918 15.3677C14.803 15.6508 14.3626 15.8002 14.166 15.8395Z" fill="#9DC857"/>
<path d="M7.67708 17.6096C7.20522 16.6659 6.92997 14.8571 6.85133 14.0707C6.66249 14.0707 6.06494 13.4415 5.78977 13.127L4.96401 13.3629C4.41351 13.4022 3.3125 13.9291 3.3125 15.7222C3.3125 17.5153 4.09885 18.514 4.49203 18.7893C4.45271 18.3174 4.42125 17.3029 4.60999 17.0198C4.79874 16.7367 5.39643 15.4076 5.67168 14.7785C5.86042 15.8166 6.53676 17.0984 6.85133 17.6096C7.32319 17.7984 7.59844 17.6883 7.67708 17.6096Z" fill="#9DC857"/>
</svg>
