<svg width="128" height="128" viewBox="0 0 32 32" fill="none" xmlns="http://www.w3.org/2000/svg">
<path fill-rule="evenodd" clip-rule="evenodd" d="M20.0695 3.79316C19.8931 3.84258 19.7035 3.90101 19.4893 3.96702C19.2879 4.02907 19.0649 4.09781 18.8107 4.17203C18.2955 4.32251 17.5621 4.52382 16.942 4.52382C16.1881 4.52382 15.6166 4.19328 15.3853 4.05948C15.3599 4.04476 15.3385 4.03242 15.3215 4.02317C15.1734 3.94255 15.0822 3.89677 14.8831 3.88876C14.8305 3.92366 14.6849 4.03781 14.44 4.3681C14.082 4.85074 13.7255 5.49426 13.2741 6.30913C13.2002 6.44251 13.1238 6.58047 13.0444 6.72307C12.1517 8.32641 11.0475 9.89781 10.5945 10.5005L10.5306 10.5855L10.4553 10.6607C10.3448 10.7711 10.2168 10.8602 10.1844 10.8827C10.1824 10.8841 10.1808 10.8852 10.1795 10.8861C10.1139 10.9322 10.0317 10.9872 9.93164 11.052C9.73037 11.1823 9.43087 11.3688 8.99673 11.6287C8.70733 11.802 8.50799 12.0406 8.41138 12.2334C8.39899 12.2581 8.38941 12.2798 8.38202 12.2984C8.655 12.9021 8.76963 13.4626 8.76963 13.8415V14.0622L8.70611 14.2734C8.47054 15.0569 7.89086 15.7504 7.46542 16.1992C7.35523 16.3154 7.24294 16.4279 7.13118 16.5353C7.3932 17.0728 7.5778 17.5215 7.79118 18.0715C7.84607 18.213 7.90283 18.361 7.96363 18.5195C8.26059 19.2939 8.65367 20.319 9.39369 22.0563C10.4373 24.5065 12.086 26.6182 13.2099 27.8323C15.1865 26.5117 18.4902 24.1087 21.105 21.5683C23.5389 19.2037 24.7033 16.86 25.1462 15.5838C23.1888 13.5707 21.6656 10.7312 21.1004 9.47063L20.3308 7.7541L21.902 7.44054C21.5455 6.95608 21.2269 6.33219 20.9474 5.53538C20.6016 4.54961 20.2847 4.02872 20.073 3.79705C20.0718 3.79574 20.0707 3.79444 20.0695 3.79316ZM24.5133 9.57739C24.5668 9.53652 24.6193 9.49398 24.6707 9.44972C25.2152 8.98051 25.5433 8.39569 25.7181 7.7851L26.114 6.40266L24.7495 5.94883C24.6089 5.90209 24.5836 5.89716 24.5724 5.89498C24.5646 5.89346 24.5636 5.89327 24.535 5.88111L24.5345 5.88088C24.5301 5.87908 24.5106 5.87107 24.4716 5.83662C24.3809 5.75659 24.0981 5.454 23.7783 4.54237C23.38 3.40703 22.8997 2.44315 22.2877 1.77335C21.6406 1.0652 20.6857 0.544025 19.5551 0.826035C19.2509 0.90193 18.8498 1.02484 18.4817 1.13762C18.2973 1.19412 18.1212 1.24808 17.9698 1.29232C17.4721 1.43765 17.1582 1.50497 17.0027 1.52033C16.963 1.49937 16.887 1.45963 16.7556 1.38815C16.3348 1.15912 15.7382 0.887493 14.8162 0.887493C13.4558 0.887493 12.5574 1.87036 12.0304 2.58102C11.5429 3.23833 11.0736 4.08762 10.6347 4.88205C10.5634 5.01106 10.4929 5.13862 10.4233 5.26367C9.696 6.56986 8.79554 7.87901 8.33321 8.51291C8.32316 8.51947 8.3125 8.5264 8.3012 8.53372C8.13932 8.63853 7.87193 8.80557 7.45575 9.05473C6.68226 9.5178 6.08441 10.1807 5.72929 10.8893C5.40517 11.5361 5.14586 12.5274 5.60971 13.453C5.64492 13.5233 5.67312 13.5884 5.69556 13.6467C5.69551 13.6468 5.69545 13.6469 5.69539 13.647C5.59354 13.7932 5.45466 13.9597 5.28817 14.1353C4.95238 14.4895 4.57678 14.8051 4.35139 14.9738L3.3064 15.7558L3.93647 16.8989C4.4843 17.8927 4.696 18.3877 4.99429 19.1566C5.04684 19.292 5.10202 19.4359 5.16175 19.5917C5.45978 20.369 5.87105 21.4416 6.63363 23.2319C8.18619 26.8769 10.8268 29.806 12.0071 30.8659L12.8461 31.6194L13.803 31.0226C15.5553 29.9299 19.8606 26.96 23.1955 23.72C26.6272 20.386 28.0308 16.9207 28.3041 15.3754L28.4516 14.5413L27.8136 13.9843C26.5043 12.8412 25.2947 10.9915 24.5133 9.57739ZM5.77315 13.9167C5.77313 13.9167 5.77296 13.9155 5.7727 13.9132C5.77304 13.9156 5.77317 13.9168 5.77315 13.9167Z" fill="#FFC392"/>
<path d="M11.7337 5.99354C10.8834 7.52074 9.82048 9.03379 9.39532 9.59942C9.35989 9.6348 9.07645 9.83283 8.22613 10.3419C7.16322 10.9782 6.63177 12.1448 6.95064 12.7812C7.20574 13.2902 7.26952 13.7003 7.26952 13.8417C7.01442 14.6902 5.81688 15.7507 5.25 16.1749C6.41919 18.296 6.20661 18.4021 8.01355 22.6443C9.45909 26.0381 11.9463 28.7955 13.0092 29.75C14.7098 28.6894 18.9189 25.7835 22.1502 22.6443C25.3814 19.5051 26.6143 16.3163 26.8269 15.1144C24.7861 13.3326 23.0713 10.2005 22.469 8.85712C23.5319 8.64501 24.0634 8.11473 24.276 7.37234C23.9571 7.26629 23.1068 7.16015 22.3627 5.03904C21.6187 2.91794 20.7684 2.0695 19.9181 2.28161C19.0677 2.49372 17.686 3.02399 16.9419 3.02399C16.1979 3.02399 15.9853 2.38766 14.8161 2.38766C13.6469 2.38766 12.7966 4.08455 11.7337 5.99354Z" fill="#552E0A"/>
<path d="M11.7337 5.99354C10.8834 7.52074 9.82048 9.03379 9.39532 9.59942C9.35989 9.6348 9.07645 9.83283 8.22613 10.3419C7.16322 10.9782 6.63177 12.1448 6.95064 12.7812C7.20574 13.2902 7.26952 13.7003 7.26952 13.8417C7.01442 14.6902 5.81688 15.7507 5.25 16.1749C6.41919 18.296 6.20661 18.4021 8.01355 22.6443C9.45909 26.0381 11.9463 28.7955 13.0092 29.75C14.7098 28.6894 18.9189 25.7835 22.1502 22.6443C25.3814 19.5051 26.6143 16.3163 26.8269 15.1144C24.7861 13.3326 23.0713 10.2005 22.469 8.85712C23.5319 8.64501 24.0634 8.11473 24.276 7.37234C23.9571 7.26629 23.1068 7.16015 22.3627 5.03904C21.6187 2.91794 20.7684 2.0695 19.9181 2.28161C19.0677 2.49372 17.686 3.02399 16.9419 3.02399C16.1979 3.02399 15.9853 2.38766 14.8161 2.38766C13.6469 2.38766 12.7966 4.08455 11.7337 5.99354Z" fill="#552E0A"/>
<path d="M11.7337 5.99354C10.8834 7.52074 9.82048 9.03379 9.39532 9.59942C9.35989 9.6348 9.07645 9.83283 8.22613 10.3419C7.16322 10.9782 6.63177 12.1448 6.95064 12.7812C7.20574 13.2902 7.26952 13.7003 7.26952 13.8417C7.01442 14.6902 5.81688 15.7507 5.25 16.1749C6.41919 18.296 6.20661 18.4021 8.01355 22.6443C9.45909 26.0381 11.9463 28.7955 13.0092 29.75C14.7098 28.6894 18.9189 25.7835 22.1502 22.6443C25.3814 19.5051 26.6143 16.3163 26.8269 15.1144C24.7861 13.3326 23.0713 10.2005 22.469 8.85712C23.5319 8.64501 24.0634 8.11473 24.276 7.37234C23.9571 7.26629 23.1068 7.16015 22.3627 5.03904C21.6187 2.91794 20.7684 2.0695 19.9181 2.28161C19.0677 2.49372 17.686 3.02399 16.9419 3.02399C16.1979 3.02399 15.9853 2.38766 14.8161 2.38766C13.6469 2.38766 12.7966 4.08455 11.7337 5.99354Z" fill="#552E0A"/>
<path d="M11.7337 5.99354C10.8834 7.52074 9.82048 9.03379 9.39532 9.59942C9.35989 9.6348 9.07645 9.83283 8.22613 10.3419C7.16322 10.9782 6.63177 12.1448 6.95064 12.7812C7.20574 13.2902 7.26952 13.7003 7.26952 13.8417C7.01442 14.6902 5.81688 15.7507 5.25 16.1749C6.41919 18.296 6.20661 18.4021 8.01355 22.6443C9.45909 26.0381 11.9463 28.7955 13.0092 29.75C14.7098 28.6894 18.9189 25.7835 22.1502 22.6443C25.3814 19.5051 26.6143 16.3163 26.8269 15.1144C24.7861 13.3326 23.0713 10.2005 22.469 8.85712C23.5319 8.64501 24.0634 8.11473 24.276 7.37234C23.9571 7.26629 23.1068 7.16015 22.3627 5.03904C21.6187 2.91794 20.7684 2.0695 19.9181 2.28161C19.0677 2.49372 17.686 3.02399 16.9419 3.02399C16.1979 3.02399 15.9853 2.38766 14.8161 2.38766C13.6469 2.38766 12.7966 4.08455 11.7337 5.99354Z" fill="#552E0A"/>
<path fill-rule="evenodd" clip-rule="evenodd" d="M16.7175 23.5139C17.1729 23.4787 18.5672 23.0279 20.5009 21.5064C19.5201 22.6686 16.6334 25.3523 12.9341 26.7893C12.1634 26.1906 10.3067 24.2958 9.04553 21.5064C7.78438 18.7171 7.2589 16.9631 7.15381 16.4349C7.74935 15.8009 8.96145 14.364 9.04553 13.6878C9.08901 13.338 9.04253 13.0787 9.00287 12.8575C8.94668 12.544 8.90419 12.3069 9.15062 11.9973C9.50563 11.5511 9.71073 11.5571 10.1457 11.5697C10.2258 11.5721 10.3137 11.5746 10.4118 11.5746C10.7971 11.1872 11.736 9.9898 12.4086 8.29929C13.2494 6.18614 14.0901 4.91825 14.6156 4.81259C14.9317 4.74902 15.0957 4.83844 15.2449 4.91977C15.3436 4.97361 15.4359 5.02391 15.5615 5.02391C15.4812 5.23365 15.3863 5.53949 15.2867 5.86014C15.169 6.23942 15.0448 6.63942 14.9309 6.92564C14.8258 6.71441 14.6786 6.60867 14.5105 6.60867C14.3003 6.60867 13.3544 7.13695 13.3544 7.24261C13.3544 7.29783 13.498 7.3819 13.665 7.47974C13.8176 7.56913 13.9898 7.67001 14.0901 7.7709C13.7748 7.91177 13.1022 8.23579 12.9341 8.40484C12.9341 8.6866 12.9971 9.33463 13.2494 9.67273L14.3003 8.93313L13.7748 11.0463L15.1411 8.72181L16.2971 9.88405L17.3481 9.03879L16.4022 7.98221L17.6634 7.45393C17.5583 7.31305 17.306 7.01016 17.1379 6.92564L15.8767 7.24261C16.2971 6.50301 17.1589 5.00267 17.243 4.91815C17.3481 4.81249 18.9245 4.07289 19.1347 4.49552C19.2301 4.68736 19.1739 5.20576 19.1038 5.85307C19.0194 6.63179 18.9148 7.59708 19.0296 8.40484C19.2398 9.88405 19.45 10.9407 20.7111 12.2086C20.536 11.8211 20.1857 10.7715 20.1857 9.67273C20.571 10.518 21.8041 12.7369 23.6538 14.85C23.6538 15.8009 22.2665 18.865 16.7175 23.5139ZM20.8159 15.4833C20.1853 16.6455 17.705 19.7941 12.8286 23.0906C12.0229 22.5623 10.012 20.4703 8.41458 16.3285C8.7649 15.9059 9.54962 14.8916 9.88592 14.2154C10.2697 13.4438 10.0404 13.1124 9.8376 12.8194C9.81825 12.7914 9.79914 12.7638 9.78083 12.7362C9.57064 12.4192 10.0961 12.4192 10.7267 12.8418C10.9451 12.9882 11.2518 13.2741 11.5857 13.5852C12.2155 14.1723 12.9419 14.8493 13.3541 14.8493C13.6749 14.8493 14.295 14.3844 15.0898 13.7884C15.8571 13.2131 16.7872 12.5156 17.7681 11.9966C18.6089 12.5249 19.6598 13.3701 20.8159 15.4833Z" fill="#FCA45C"/>
<path d="M14.5583 17.0571V15.8936C16.568 14.6244 17.3083 13.4609 17.8372 13.4609C18.0487 13.4609 18.1545 13.884 18.2603 14.8359C18.3449 15.5975 18.225 16.2815 18.1545 16.5282C16.8853 16.359 15.2282 16.8103 14.5583 17.0571Z" fill="#FCA45C"/>
<path d="M11.9147 16.1051C11.8301 15.8512 10.6454 14.6243 10.5397 14.7301C10.3705 14.8993 10.4692 15.8583 10.5397 16.3166C10.9628 16.4012 11.7032 16.916 12.0205 17.1628C12.0205 16.916 11.9993 16.3589 11.9147 16.1051Z" fill="#FCA45C"/>
</svg>
