<svg width="128" height="128" viewBox="0 0 32 32" fill="none" xmlns="http://www.w3.org/2000/svg">
<path d="M6.00026 5.79001C4.97418 6.76061 4.93384 8.50288 4.97418 8.98999C2.84404 10.9385 2.69823 12.1447 2.12507 13.5C0.750659 16.75 0.874943 19.875 1.42192 22C1.42192 22 2.32618 21.571 2.64767 21.3568C3.42215 23.625 4.34104 24.6137 5.5 25.5C8.6251 27.8898 12.28 28 16 28C19.72 28 25.5 26 27.5 20.3568C27.5968 20.6491 28.75 21.3568 28.75 21.3568C29.25 16 28.6249 12.5 26.3749 10.75C27.4459 9.35769 29.7089 9.24614 30.9999 9.61148C30.2502 7.46946 27.7625 4.39289 24.2526 4.14933C21.4447 3.95449 20.2803 4.40849 19.4331 5.22034C19.2394 4.53838 18.8183 4.3523 18.5763 4.14933C16.8334 5.41583 15.0463 6.35789 14.078 6.39849C14.078 6.39849 15.7916 4.57771 16.22 4.14927C14.8887 3.66227 12.7928 3.61382 10.6508 4.04223C9.11631 4.34912 7.35461 5.66137 6.7898 6.55442C6.60689 6.51796 6.36424 6.39664 6.00026 5.79001Z" fill="#FFB1B8"/>
<path d="M6.79988 7.57417C5.95778 8.37073 5.92467 9.80058 5.95778 10.2004C4.2096 11.7994 3.44155 14.3979 3.27605 15.4973C2.08412 17.4162 2.77941 19.5616 3.27605 20.3944C3.35551 20.1546 3.7065 19.9614 3.87206 19.8947C3.55421 21.7337 4.46802 22.9263 4.96466 23.2928C5.12358 23.0529 5.42819 22.9263 5.56063 22.893C6.65323 24.1923 8.44112 26.291 14.5001 26.391C19.3473 26.4709 22.6781 24.0923 23.7376 22.893C23.817 23.1329 23.9693 23.7259 24.0355 23.9924C26.4989 21.194 26.0552 17.8959 25.5254 16.5966C26.2406 16.8365 27.1248 17.2502 27.1248 17.2502C26.9998 14.2502 25.2498 12.1252 23.8369 11.4996C24.711 8.22145 27.0485 8.00158 28.108 8.30141C27.3133 6.90221 26.0221 5.90279 23.1416 5.7029C20.8372 5.543 18.8705 6.83559 18.1752 7.50187C18.0163 6.94219 17.5792 6.46913 17.3806 6.30256C15.9503 7.34196 14.0035 7.66844 13.2088 7.70175C13.2883 7.54185 13.242 7.1021 13.2088 6.90221C12.8115 7.14208 12.2487 7.26867 12.0169 7.30198C12.3348 6.50244 13.3182 5.17298 13.6493 5.00642C12.5783 4.89922 11.8036 4.824 10.115 5.43482C8.90731 5.87169 7.91138 7.46859 7.44785 8.2015C7.29773 8.17159 7.09859 8.07202 6.79988 7.57417Z" fill="#440B14"/>
<path d="M25.2188 7.37543C22.1919 6.57887 20.1739 7.70733 19.5433 8.37114C20.1805 8.21179 21.3356 8.30474 21.8334 8.37114C21.5944 8.9287 21.933 9.79833 22.1321 10.1634C22.849 9.36688 24.4886 7.97287 25.2188 7.37543Z" fill="#FF7580"/>
<path d="M11.8764 6.08105C10.0443 6.16071 8.85606 7.64097 8.49097 8.37114C9.04856 7.89317 10.0177 7.60778 10.3828 7.57461C10.5819 7.67418 10.8807 7.77375 11.0798 7.97289C11.1794 7.47504 11.6108 6.51254 11.8764 6.08105Z" fill="#FF7580"/>
<path d="M18.4589 12.8174C16.6815 14.3868 14.1931 15.1916 12.8896 15.1111C13.0792 15.594 13.6796 15.9562 13.9561 16.0769C14.0746 17.0664 15.141 18.3707 16.9185 17.4049C18.3404 16.6323 17.9059 15.3124 17.5109 14.749C17.9849 14.2661 18.3404 13.5417 18.4589 12.8174Z" fill="#FF7580"/>
<path d="M8.14744 17.3238C8.24978 16.5504 8.78707 15.3905 9.04293 14.9071C7.91734 14.7138 6.86824 13.296 6.48438 12.6113C6.07492 13.288 6.31378 13.9405 6.48438 14.1821C6.35646 14.4641 6.15177 15.2213 6.35646 15.9946C6.56114 16.7679 7.63573 17.2029 8.14744 17.3238Z" fill="#FF7580"/>
<path d="M4.98524 18.3106C4.80256 18.3809 4.48519 18.1562 4.34935 18.0351C4.81171 19.7302 5.55664 20.5014 5.87131 20.6751C6.05399 20.6047 6.33129 20.4633 6.44711 20.4013C6.51964 21.5389 7.28656 22.4716 7.66096 22.7957C8.19327 22.7572 9.04748 22.0884 9.40804 21.7588C10.2672 22.9681 11.5419 23.7296 12.0718 23.9591C12.8104 23.5915 13.4976 22.8205 13.7489 22.4809C13.9511 22.6806 14.8142 23.1218 16.6498 23.2891C18.4853 23.4565 19.7251 22.9896 20.1155 22.7352C20.1706 22.1313 20.0248 21.3132 19.9451 20.9797C21.4704 20.6838 22.1489 19.767 22.2975 19.3456C22.1533 18.0275 20.3494 17.7542 19.4655 17.7824C20.0019 17.94 20.9499 18.418 20.4499 19.0683C19.9499 19.7187 18.4941 19.9775 17.8287 20.0255C18.4808 20.607 18.426 21.5299 18.3171 21.9188C15.3697 22.346 13.8302 20.7846 13.4288 19.9505C12.8974 20.946 12.0696 21.5665 11.7222 21.7523C10.9355 21.6806 10.0556 20.2954 9.71399 19.6118C9.02346 20.4188 8.22877 20.9988 7.91774 21.1879C7.09087 20.5905 6.9031 19.4279 6.91258 18.9213L5.84072 19.8023C5.37135 19.1505 5.39241 18.2752 5.46162 17.919C5.37894 18.0202 5.16792 18.2402 4.98524 18.3106Z" fill="#FF7580"/>
</svg>
