<svg width="128" height="128" viewBox="0 0 32 32" fill="none" xmlns="http://www.w3.org/2000/svg">
<path fill-rule="evenodd" clip-rule="evenodd" d="M20.6325 1.68262L24.0741 7.1636L29.4833 10.4619L27.9112 16.9918C28.977 18.1441 30.4426 20.2145 31.194 22.8861L31.4201 23.6901L30.3106 24.9004C30.5301 25.5085 30.6223 26.2651 30.3711 27.1024C30.1595 27.8078 29.7634 28.4364 29.4174 28.8974C29.0633 29.3691 28.6887 29.7612 28.423 30.0003L27.4257 30.8979L25.5565 29.2363C25.2571 29.5711 24.8732 29.9373 24.4349 30.1878L23.7864 30.5584L23.0998 30.2641C22.7648 30.1206 22.2923 29.8203 21.7638 29.3531L20.5316 30.4906L19.583 29.9636C19.1757 29.7373 18.5694 29.2589 18.0295 28.5351C17.2024 28.8304 16.2048 29.138 15.1577 29.3775C13.5431 29.747 11.6102 30.0031 9.97599 29.653L9.08334 29.4617L9.0505 29.3413L8.91289 29.3216C8.28243 29.2315 7.31027 29.0225 6.3598 28.674C5.4765 28.3502 4.31008 27.8009 3.61358 26.8723L3.45678 26.6632L3.37992 26.4134C3.28137 26.0931 3.12045 25.4698 3.02478 24.7628L1.00195 23.5313V21.4114C1.16247 21.1706 1.42783 20.8218 1.75134 20.4737C1.79084 20.4312 1.83235 20.3874 1.87578 20.3428C1.69897 19.8741 1.56571 19.3259 1.56571 18.7477V18.0268L2.52458 17.2596L1.84348 14.7623L4.31294 12.5075C4.29826 12.4697 4.28393 12.4317 4.26995 12.3935C4.02378 11.72 3.83422 10.8397 3.78138 9.73005L3.74914 9.05298L4.23599 8.58134C5.50697 7.35009 8.77754 4.41716 11.7017 2.5652L12.0154 2.36651L20.6325 1.68262ZM5.96005 24.0163C5.97334 24.1834 5.99567 24.3641 6.02619 24.552C6.06692 24.8029 6.11702 25.0355 6.16306 25.2222C6.38241 25.4036 6.78583 25.635 7.39237 25.8573C7.78906 26.0028 8.1979 26.1177 8.56166 26.2026L10.6524 23.8132L11.4715 26.8165C12.3382 26.8431 13.3884 26.7048 14.4886 26.4531C15.9481 26.1192 17.3061 25.6309 18.0855 25.2943L19.4803 24.692L20.0647 26.0945C20.1413 26.2784 20.2327 26.4449 20.3305 26.5934L21.9789 25.0718L22.9872 26.3042C23.194 26.5569 23.3908 26.7664 23.5681 26.937C23.7702 26.6756 23.9372 26.4181 24.0264 26.2652L24.9494 24.6828L27.2617 26.7382C27.375 26.5514 27.4554 26.3811 27.4976 26.2404C27.5324 26.1244 27.5236 26.0207 27.4883 25.9173C27.4697 25.8627 27.4453 25.8142 27.4221 25.777C27.4099 25.7574 27.401 25.7455 27.3973 25.7409L26.392 24.7356L28.0553 22.9211C27.237 20.6744 25.8418 19.088 25.2781 18.6048L24.5811 18.0074L26.0549 11.8852L21.9091 9.3572L19.0582 4.81699L12.9994 5.29786C10.7258 6.78814 8.20954 8.97165 6.83485 10.2513C6.89807 10.7476 6.99588 11.1126 7.08762 11.3635C7.16792 11.5832 7.23325 11.6899 7.25268 11.7214L8.47538 12.7694L5.22014 15.7416L5.93734 18.3713L4.70999 19.3532C4.7112 19.3561 4.71241 19.3591 4.71363 19.362C4.81275 19.6012 4.92596 19.7767 4.96486 19.8286L5.18801 20.1262L5.56949 20.0499L5.44415 20.4677L5.98436 21.188L5.46962 21.4821L6.56631 23.5313L5.96005 24.0163Z" fill="#F6DCFF"/>
<path d="M5.27966 9.6589C5.37288 11.6165 5.93997 12.572 6.21186 12.8051L3.53178 15.2521L4.23093 17.8157L3.06568 18.7479C3.06568 19.5869 3.53178 20.4181 3.76483 20.7288C3.11229 21.1017 2.48305 21.8941 2.25 22.2436L3.41525 22.0106L3.06568 23.1758L5.62924 22.3602L4.46398 23.2924C4.37076 24.2246 4.65819 25.4675 4.81356 25.9725C5.65254 27.0911 8.03743 27.6815 9.125 27.8369L9.94068 26.9047L10.2903 28.1864C12.9004 28.7458 16.971 27.4096 18.6801 26.6716C19.1462 27.7903 19.9619 28.4583 20.3114 28.6525L21.8263 27.2542C22.6653 28.2797 23.4188 28.7691 23.6907 28.8856C24.3432 28.5127 25.0501 27.4873 25.322 27.0212L27.4195 28.8856C27.8079 28.536 28.6547 27.6038 28.9343 26.6716C29.214 25.7394 28.7401 24.9626 28.4682 24.6907L29.75 23.2924C28.911 20.3093 27.0699 18.1653 26.2542 17.4661L27.7691 11.1737L22.9915 8.26059L19.8453 3.25L12.5042 3.83263C9.70762 5.60381 6.5226 8.4548 5.27966 9.6589Z" fill="#491960"/>
<path d="M18.3308 16.1845C15.6274 18.7014 14.0194 21.8942 13.5533 23.176C12.8075 23.176 9.90213 22.943 8.54267 22.8264C7.05115 21.0553 5.82374 18.4373 5.39648 17.3497L6.32869 16.5341C7.26089 18.8646 8.6592 20.5348 9.24182 21.0786L11.8054 20.1464H9.5914C8.47276 19.4938 7.57163 16.5341 7.26089 15.1358C8.47276 13.8307 11.1839 12.4168 12.388 11.873C15.3711 13.1781 17.5928 15.2911 18.3308 16.1845Z" fill="#DD7EFF"/>
<path d="M16.1161 20.3791C16.3025 19.7265 17.3978 18.8642 17.8639 18.5146L17.7474 20.4956L15.9994 21.7774C15.9606 21.5832 15.9296 21.0316 16.1161 20.3791Z" fill="#DD7EFF"/>
<path d="M12.8531 5.46412L7.95898 9.42598L10.0564 8.6103C10.6158 9.35607 10.6779 10.164 10.6391 10.4747L8.54161 12.5722L12.7365 10.4747C16.8149 11.7565 19.495 14.7861 19.8446 15.6018C20.1242 16.2544 20.2718 17.9712 20.3107 18.748L24.0395 17.3497L25.7874 12.2226L21.4759 10.7078L20.0776 12.6887L20.6603 9.0764L18.0967 4.64844L12.8531 5.46412Z" fill="#DD7EFF"/>
<path d="M21.9421 19.5628C21.1031 20.4018 20.2719 22.3206 19.9612 23.1751L20.4273 23.8743C20.9322 23.7189 22.3383 23.4082 23.923 23.4082C25.5078 23.4082 27.0692 23.5636 27.6519 23.6412L28.0014 23.1751C28.0947 21.7767 26.4866 20.0289 25.6709 19.3298C24.3658 19.1433 22.6413 19.4074 21.9421 19.5628Z" fill="#DD7EFF"/>
<path d="M20.3108 27.2535L21.9421 25.6222L21.1264 24.69C20.738 25.1172 19.9612 25.9951 19.9612 26.0883C19.9612 26.1815 20.1942 26.904 20.3108 27.2535Z" fill="#DD7EFF"/>
<path d="M24.6222 25.6222C24.529 25.4357 24.1173 24.7677 23.923 24.4569L22.7578 25.2726C22.7578 25.5523 23.3793 26.7874 23.69 27.3701L24.6222 25.6222Z" fill="#DD7EFF"/>
<path d="M26.9527 24.923C26.7663 24.923 26.0982 25.2338 25.7875 25.3891C26.2536 25.6688 27.2246 26.6709 27.6519 27.137V25.8552C27.6519 25.6222 27.1858 24.923 26.9527 24.923Z" fill="#DD7EFF"/>
<path d="M11.339 25.973L11.5721 25.0408C13.9026 24.7611 15.262 24.0697 15.6504 23.759L15.0678 23.0599C16 23.1531 16.8545 23.4871 17.1653 23.6425C16.9788 24.5747 16.3108 25.6623 16 26.0895C15.4174 26.6721 13.553 27.1382 12.7373 27.1382C12.0848 27.1382 11.5332 26.3614 11.339 25.973Z" fill="#DD7EFF"/>
<path d="M7.14409 23.759C6.95765 23.4793 7.29946 22.8656 7.49367 22.5938C6.91098 22.9045 5.74561 23.5959 5.74561 23.8755C5.74561 24.1552 5.97866 24.9243 6.09518 25.2738L8.07611 26.5556C8.72866 26.0895 8.81411 25.3515 8.77527 25.0408C8.30922 24.73 7.33053 24.0387 7.14409 23.759Z" fill="#DD7EFF"/>
</svg>
